<?xml version="1.0" standalone="no"?>
<!DOCTYPE svg PUBLIC "-//W3C//DTD SVG 20010904//EN"
 "http://www.w3.org/TR/2001/REC-SVG-20010904/DTD/svg10.dtd">
<svg version="1.0" xmlns="http://www.w3.org/2000/svg"
 width="512.000000pt" height="512.000000pt" viewBox="0 0 512.000000 512.000000"
 preserveAspectRatio="xMidYMid meet">

<g transform="translate(0.000000,512.000000) scale(0.100000,-0.100000)"
fill="#000000" stroke="none">
<path d="M1375 4043 c-250 -53 -472 -241 -570 -481 -81 -199 -71 -450 26 -646
83 -168 211 -292 382 -371 157 -72 128 -70 862 -70 659 0 660 0 739 23 335 97
562 380 583 727 22 389 -247 741 -629 819 -111 23 -1286 22 -1393 -1z m71
-529 c126 -60 134 -231 15 -311 -40 -27 -126 -31 -169 -9 -61 32 -102 96 -102
161 0 128 139 214 256 159z m1420 -3 c99 -60 123 -186 52 -267 -42 -48 -77
-64 -141 -64 -114 0 -200 113 -168 221 14 48 56 98 96 115 45 20 124 17 161
-5z"/>
<path d="M4053 2361 c-162 -56 -244 -224 -189 -389 17 -50 17 -53 -3 -80 -32
-45 -149 -151 -210 -190 -137 -88 -349 -164 -518 -187 l-52 -7 -6 39 c-3 21
-13 60 -22 88 -45 146 -174 261 -331 294 -73 15 -1220 15 -1294 0 -133 -28
-261 -127 -314 -244 -48 -103 -49 -150 -15 -455 17 -151 33 -302 36 -335 12
-142 19 -184 42 -245 61 -167 203 -273 383 -289 l75 -6 5 -90 c6 -101 22 -137
90 -198 62 -57 113 -67 345 -67 231 0 277 9 344 67 63 54 91 119 91 216 l0 77
59 0 c118 0 251 62 324 152 75 93 103 173 117 343 14 156 37 348 39 319 1 -19
4 -20 77 -12 376 40 734 205 944 435 59 64 130 158 130 170 0 5 19 14 43 20
87 24 173 113 198 208 30 111 -14 245 -104 317 -84 65 -185 83 -284 49z m-986
-1023 c-3 -8 -6 -5 -6 6 -1 11 2 17 5 13 3 -3 4 -12 1 -19z m-10 -95 c-3 -10
-5 -4 -5 12 0 17 2 24 5 18 2 -7 2 -21 0 -30z"/>
</g>
</svg>
